<svg xmlns="http://www.w3.org/2000/svg" xmlns:svg="http://www.w3.org/2000/svg" id="svg2" width="592.128" height="469.83" version="1.1" viewBox="-44 -44 7874.195 6244.98"><metadata id="metadata212"/><defs id="defs210"><marker id="Arrow1Send" orient="auto" overflow="visible" refX="0" refY="0"><path id="path3940" fill-rule="evenodd" stroke="#000" stroke-width="1pt" d="M 0,0 5,-5 -12.5,0 5,5 0,0 z" transform="matrix(-0.2,0,0,-0.2,-1.2,0)"/></marker><marker id="TriangleOutS" orient="auto" overflow="visible" refX="0" refY="0"><path id="path4073" fill-rule="evenodd" stroke="#000" stroke-width="1pt" d="m 5.77,0 -8.65,5 0,-10 8.65,5 z" transform="scale(0.2,0.2)"/></marker><marker id="TriangleOutM" orient="auto" overflow="visible" refX="0" refY="0"><path id="path4070" fill-rule="evenodd" stroke="#000" stroke-width="1pt" d="m 5.77,0 -8.65,5 0,-10 8.65,5 z" transform="scale(0.4,0.4)"/></marker><marker id="Arrow2Mend" orient="auto" overflow="visible" refX="0" refY="0"><path id="path3952" fill-rule="evenodd" stroke-linejoin="round" stroke-width=".625" d="M 8.7185878,4.0337352 -2.2072895,0.01601326 8.7185884,-4.0017078 c -1.7454984,2.3720609 -1.7354408,5.6174519 -6e-7,8.035443 z" transform="scale(-0.6,-0.6)"/></marker><marker id="Arrow2Lend" orient="auto" overflow="visible" refX="0" refY="0"><path id="path3946" fill-rule="evenodd" stroke-linejoin="round" stroke-width=".625" d="M 8.7185878,4.0337352 -2.2072895,0.01601326 8.7185884,-4.0017078 c -1.7454984,2.3720609 -1.7354408,5.6174519 -6e-7,8.035443 z" transform="matrix(-1.1,0,0,-1.1,-1.1,0)"/></marker><marker id="Arrow1Mend" orient="auto" overflow="visible" refX="0" refY="0"><path id="path3970" fill-rule="evenodd" stroke="#000" stroke-width="1pt" d="M 0,0 5,-5 -12.5,0 5,5 0,0 z" transform="matrix(-0.4,0,0,-0.4,-4,0)"/></marker><marker id="Arrow2Mend-7" orient="auto" overflow="visible" refX="0" refY="0"><path id="path3952-0" fill-rule="evenodd" stroke-linejoin="round" stroke-width=".625" d="M 8.7185878,4.0337352 -2.2072895,0.01601326 8.7185884,-4.0017078 c -1.7454984,2.3720609 -1.7354408,5.6174519 -6e-7,8.035443 z" transform="scale(-0.6,-0.6)"/></marker><marker id="Arrow1Send-3" orient="auto" overflow="visible" refX="0" refY="0"><path id="path3940-6" fill-rule="evenodd" stroke="#000" stroke-width="1pt" d="M 0,0 5,-5 -12.5,0 5,5 0,0 z" transform="matrix(-0.2,0,0,-0.2,-1.2,0)"/></marker><marker id="Arrow1Send-1" orient="auto" overflow="visible" refX="0" refY="0"><path id="path3940-2" fill-rule="evenodd" stroke="#000" stroke-width="1pt" d="M 0,0 5,-5 -12.5,0 5,5 0,0 z" transform="matrix(-0.2,0,0,-0.2,-1.2,0)"/></marker><marker id="Arrow1Send-0" orient="auto" overflow="visible" refX="0" refY="0"><path id="path3940-9" fill-rule="evenodd" stroke="#000" stroke-width="1pt" d="M 0,0 5,-5 -12.5,0 5,5 0,0 z" transform="matrix(-0.2,0,0,-0.2,-1.2,0)"/></marker></defs><g id="g4" fill="none" stroke-width="2.4" transform="translate(-2296.0293,-2364.1166)"><path id="path3134-9-0-3" fill="none" stroke="#969696" stroke-dasharray="none" stroke-linecap="butt" stroke-linejoin="miter" stroke-miterlimit="4" stroke-opacity="1" stroke-width="53.193" marker-end="url(#Arrow1Send)" d="m 6161.6776,2411.7612 0,4920.3076"/><path id="path3134-9-0" fill="none" stroke="#969696" stroke-dasharray="none" stroke-linecap="butt" stroke-linejoin="miter" stroke-miterlimit="4" stroke-opacity="1" stroke-width="53.193" marker-end="url(#Arrow1Send)" d="m 6161.6776,4672.443 -2393.6631,0.5116 0,1196.8316 2393.6631,-0.5116"/><path id="path3134-9-0-7" fill="none" stroke="#969696" stroke-dasharray="none" stroke-linecap="butt" stroke-linejoin="miter" stroke-miterlimit="4" stroke-opacity="1" stroke-width="53.193" marker-end="url(#Arrow1Send)" d="m 6161.6776,4672.443 2393.6631,0.5116 0,1196.8316 -2393.6631,-0.5116"/><rect id="rect118-3" width="2844.097" height="360.774" x="2333.52" y="5109.557" fill="none" stroke="#000" stroke-dasharray="30.001 60.001" stroke-dashoffset="0" stroke-linecap="butt" stroke-linejoin="miter" stroke-miterlimit="4" stroke-width="30.001" rx="0" ry="0"/><text id="text202-7-5" x="2562.135" y="5357.994" fill="#000" stroke-width="2.4" font-family="Courier" font-size="192" font-style="normal" font-weight="bold" text-anchor="start" xml:space="preserve">rcu_sched_clock_irq()</text><rect id="rect118-36" width="2975.115" height="382.863" x="7069.619" y="5087.468" fill="none" stroke="#000" stroke-dasharray="30.001 60.001" stroke-dashoffset="0" stroke-linecap="butt" stroke-linejoin="miter" stroke-miterlimit="4" stroke-width="30.001" rx="0" ry="0"/><text id="text202-7-9-6" x="7165.252" y="5333.493" fill="#000" stroke-width="2.4" font-family="Courier" font-size="192" font-style="normal" font-weight="bold" text-anchor="start" xml:space="preserve">rcu_cleanup_after_idle()</text><g id="g3058" transform="translate(-53.192514,-2819.2063)"><text id="text202" x="5073.337" y="6532.029" fill="#000" font-family="Courier" font-size="192" font-style="normal" font-weight="bold" text-anchor="start" xml:space="preserve">rcu_advance_cbs()</text><rect id="rect112" width="2809.199" height="1370.872" x="4800.256" y="5650.26" stroke="#000" stroke-linecap="butt" stroke-linejoin="miter" stroke-width="30" rx="0"/><rect id="rect112-3" width="2809.199" height="1294.847" x="4800.256" y="5726.285" fill="none" stroke="#000" stroke-linecap="butt" stroke-linejoin="miter" stroke-width="30" rx="0"/><text id="text202-7-5-1-2-3-7" x="7220.106" y="6961.395" fill="#000" stroke-width="2.4" font-family="Courier" font-size="192" font-style="normal" font-weight="bold" text-anchor="start" xml:space="preserve" style="line-height:125%"><tspan style="text-align:start;line-height:125%;-inkscape-font-specification:Liberation Sans" id="tspan3104-6-5" font-family="Liberation Sans" font-size="159.578" font-stretch="normal" font-style="normal" font-variant="normal" font-weight="normal" text-anchor="start" writing-mode="lr-tb">Leaf</tspan></text><text id="text202-3" x="5073.337" y="6321.925" fill="#000" stroke-width="2.4" font-family="Courier" font-size="192" font-style="normal" font-weight="bold" text-anchor="start" xml:space="preserve">__note_gp_changes()</text></g><g id="g3049" transform="translate(26.596257,6090.5512)"><path id="path3084-3" fill="#ffffa1" fill-opacity="0" stroke="#000" stroke-dasharray="2.256 4.512" stroke-dashoffset="0" stroke-miterlimit="4" stroke-opacity="1" stroke-width="2.256" d="m 385.2961,345.54001 c 0,21.84301 -29.51209,39.55026 -65.9171,39.55026 -36.40501,0 -65.91711,-17.70725 -65.91711,-39.55026 0,-21.84301 29.5121,-39.55026 65.91711,-39.55026 36.40501,0 65.9171,17.70725 65.9171,39.55026 z" transform="matrix(13.298129,0,0,13.298129,1872.6808,-2726.4833)"/><text id="text202-7-5-1-2-6" x="5717.452" y="1785.207" fill="#000" stroke-width="2.4" font-family="Courier" font-size="192" font-style="normal" font-weight="bold" text-anchor="start" xml:space="preserve" style="line-height:125%"><tspan style="text-align:start;line-height:125%;-inkscape-font-specification:Liberation Sans" id="tspan3104-7" font-family="Liberation Sans" font-size="159.578" font-stretch="normal" font-style="normal" font-variant="normal" font-weight="normal" text-anchor="start" writing-mode="lr-tb">Phase Two</tspan></text><text id="text3110-5" x="6119.668" y="2005.662" fill="#000" fill-opacity="1" stroke="none" font-family="Sans" font-size="159.578" font-style="normal" font-weight="normal" letter-spacing="0" text-anchor="middle" word-spacing="0" xml:space="preserve" style="text-align:center;line-height:125%"><tspan id="tspan3112-3" x="6119.668" y="2005.662">of Update</tspan></text></g><rect id="rect118-36-3" width="1994.719" height="664.907" x="5097.827" y="6268.218" fill="none" stroke="#000" stroke-dasharray="30.001 60.001" stroke-dashoffset="0" stroke-linecap="butt" stroke-linejoin="miter" stroke-miterlimit="4" stroke-width="30.001" rx="0" ry="0"/><text id="text202-7-9-6-6" x="5363.789" y="6534.181" fill="#000" stroke-width="2.4" font-family="Courier" font-size="192" font-style="normal" font-weight="bold" text-anchor="start" xml:space="preserve">RCU_SOFTIRQ</text><text id="text202-7-9-6-6-7" x="5363.789" y="6800.144" fill="#000" stroke-width="2.4" font-family="Courier" font-size="192" font-style="normal" font-weight="bold" text-anchor="start" xml:space="preserve">rcu_do_batch()</text></g></svg>